<svg xmlns="http://www.w3.org/2000/svg" width="32" height="32" viewBox="0 0 32 32" fill="none">
  <!-- Signal waves icon for Signalist -->
  <circle cx="16" cy="16" r="3" fill="#4F46E5"/>

  <!-- Inner wave -->
  <path d="M16 10C13.2386 10 11 12.2386 11 15C11 15.5523 10.5523 16 10 16C9.44772 16 9 15.5523 9 15C9 11.134 12.134 8 16 8C19.866 8 23 11.134 23 15C23 15.5523 22.5523 16 22 16C21.4477 16 21 15.5523 21 15C21 12.2386 18.7614 10 16 10Z" fill="#6366F1"/>

  <!-- Middle wave -->
  <path d="M16 5C10.4772 5 6 9.47715 6 15C6 15.5523 5.55228 16 5 16C4.44772 16 4 15.5523 4 15C4 8.37258 9.37258 3 16 3C22.6274 3 28 8.37258 28 15C28 15.5523 27.5523 16 27 16C26.4477 16 26 15.5523 26 15C26 9.47715 21.5228 5 16 5Z" fill="#818CF8"/>

  <!-- Outer wave -->
  <path d="M16 0C7.16344 0 0 7.16344 0 16C0 16.5523 0.447715 17 1 17C1.55228 17 2 16.5523 2 16C2 8.26801 8.26801 2 16 2C23.732 2 30 8.26801 30 16C30 16.5523 30.4477 17 31 17C31.5523 17 32 16.5523 32 16C32 7.16344 24.8366 0 16 0Z" fill="#A5B4FC"/>

  <!-- Bottom reflection waves -->
  <path opacity="0.5" d="M16 22C18.7614 22 21 19.7614 21 17C21 16.4477 21.4477 16 22 16C22.5523 16 23 16.4477 23 17C23 20.866 19.866 24 16 24C12.134 24 9 20.866 9 17C9 16.4477 9.44772 16 10 16C10.5523 16 11 16.4477 11 17C11 19.7614 13.2386 22 16 22Z" fill="#6366F1"/>

  <path opacity="0.3" d="M16 27C21.5228 27 26 22.5228 26 17C26 16.4477 26.4477 16 27 16C27.5523 16 28 16.4477 28 17C28 23.6274 22.6274 29 16 29C9.37258 29 4 23.6274 4 17C4 16.4477 4.44772 16 5 16C5.55228 16 6 16.4477 6 17C6 22.5228 10.4772 27 16 27Z" fill="#818CF8"/>
</svg>
